<?xml version="1.0" encoding="UTF-8"?>
<!-- Generator: Adobe Illustrator 16.0.0, SVG Export Plug-In . SVG Version: 6.00 Build 0)  -->
<!DOCTYPE svg PUBLIC "-//W3C//DTD SVG 1.1//EN" "http://www.w3.org/Graphics/SVG/1.1/DTD/svg11.dtd">
<svg version="1.1" id="Layer_1" xmlns="http://www.w3.org/2000/svg" xmlns:xlink="http://www.w3.org/1999/xlink" x="0px" y="0px" width="100px" height="100px" viewBox="0 0 250 250" enable-background="new 0 0 250 250" xml:space="preserve">
<linearGradient id="SVGID_1_" gradientUnits="userSpaceOnUse" x1="172.1729" y1="150.1992" x2="213.4095" y2="36.9025">
	<stop offset="0" style="stop-color:#D31F26"/>
	<stop offset="0.447" style="stop-color:#CA1E24"/>
	<stop offset="1" style="stop-color:#C61D23"/>
</linearGradient>
<path fill="url(#SVGID_1_)" d="M189.262,48.626l-21.488,42.569v55.504c0.111,0.748,0.615,2.715,2.789,2.715h25.504  c0.113-0.023,0.236-0.041,0.385-0.041c2.172,0,2.678-1.971,2.793-2.715V31.747L189.262,48.626z"/>
<linearGradient id="SVGID_2_" gradientUnits="userSpaceOnUse" x1="63.7642" y1="32.2583" x2="63.7642" y2="149.4146">
	<stop offset="0" style="stop-color:#C61D23"/>
	<stop offset="1" style="stop-color:#D31F26"/>
</linearGradient>
<path fill="url(#SVGID_2_)" d="M48.028,146.414c0,0,0.145,3,2.822,3h25.503c0.114-0.023,0.238-0.041,0.386-0.041  c2.012,0,2.594-1.689,2.76-2.531V90.784L58.99,50.159L48.028,32.258V146.414z"/>
<linearGradient id="SVGID_3_" gradientUnits="userSpaceOnUse" x1="48.0283" y1="73.2305" x2="136.9355" y2="73.2305">
	<stop offset="0" style="stop-color:#AD1A27"/>
	<stop offset="0.0501" style="stop-color:#B11B27"/>
	<stop offset="0.3549" style="stop-color:#C41D26"/>
	<stop offset="0.668" style="stop-color:#CF1F26"/>
	<stop offset="1" style="stop-color:#D31F26"/>
</linearGradient>
<path fill="url(#SVGID_3_)" d="M110.627,117.331l11.108-24.981L77.793,20.77v-0.001c-0.435-0.71-2.204-0.54-2.204-0.54  l-25.608,7.212l0,0c-1.856,0.522-1.953,2.464-1.953,2.464v2.353l57.412,93.993l31.496-52.09L110.627,117.331z"/>
<linearGradient id="SVGID_4_" gradientUnits="userSpaceOnUse" x1="166.8252" y1="87.8984" x2="137.393" y2="70.9058">
	<stop offset="0" style="stop-color:#D31F26"/>
	<stop offset="0.1764" style="stop-color:#D41D24"/>
	<stop offset="1" style="stop-color:#D71921"/>
</linearGradient>
<path fill="url(#SVGID_4_)" d="M197.711,27.558l-26.041-7.332c-0.268-0.021-1.762-0.105-2.158,0.543  c-0.023,0.034-0.047,0.05-0.076,0.066l-32.5,53.326l-31.496,52.09l4.012,6.567c0,0,1.273,1.242,2.725,1.242h22.925  c1.408,0,2.645-1.164,2.709-1.232l47.979-78.519l13.455-22.563v-2.325C199.102,28.871,198.721,27.985,197.711,27.558z"/>
<g>
	<path fill="#D31F26" d="M43.581,184.053c1.104,0,3.192-0.115,3.192,2.441v42.318c0,1.684-0.929,1.684-2.031,1.684h-3.426   c-2.031,0-2.321-0.289-2.321-2.326v-30.473c-4.005,5.109-7.838,10.043-12.017,14.975l0.058-0.115   c-0.522,0.869-0.871,0.869-1.741,0.869h-2.263c-1.104,0-1.22-0.17-1.859-0.926l-11.9-14.803v30.473   c0,2.037-0.292,2.326-2.322,2.326H3.526c-1.104,0.059-1.917,0-1.917-1.568l-0.115-42.492c0-2.383,2.38-2.383,3.368-2.383h2.088   c1.102,0,1.743,0.119,2.438,1.049l14.805,18.574l14.859-18.75c0.463-0.58,1.217-0.873,2.263-0.873H43.581z"/>
	<path fill="#D31F26" d="M148.656,228.639c0,0.928-0.816,1.857-1.916,1.857h-3.947c-0.754,0-1.277-0.289-1.627-0.873   c-6.963-10.393-13.002-19.33-20.142-29.893v28.908c0,0.928-0.813,1.857-1.916,1.857h-4.007c-1.102,0-1.74-0.93-1.74-1.857   l-0.117-42.727c0-0.926,0.754-1.859,1.856-1.859h4.297c0.695,0,1.219,0.293,1.568,0.934v-0.061l19.91,29.953v-28.967   c0-0.926,0.812-1.859,1.916-1.859h3.947c1.1,0,1.916,0.934,1.916,1.859V228.639z"/>
	<path fill="#D31F26" d="M198.988,215.752c0,8.123-6.85,14.744-14.977,14.744h-4.471c-7.662,0-14.105-6.094-14.105-13.992v-30.592   c0-1.217,0.637-1.859,1.857-1.859h3.889c1.801,0,1.857,1.104,1.857,2.268v30.184c0,3.541,3.018,6.387,6.502,6.387h4.471   c4.002,0,7.312-3.193,7.312-7.139V186.32c0-1.164,0.119-2.268,1.918-2.268h3.83c1.275,0,1.916,0.643,1.916,1.859V215.752z"/>
	<path fill="#D31F26" d="M244.094,227.709c-2.611,2.32-6.326,3.309-10.508,3.309h-4.41c-5.051,0-9.578-2.555-12.076-6.562   c-0.869-1.275-1.393-2.551-1.623-3.77c-0.465-2.381-0.406-3.369-0.406-4.703v0.115c0-1.16,0.057-2.264,1.855-2.264h3.949   c0.928,0,1.508,0.465,1.738,1.395c0.238,0.754,0.176,0.926,0.176,1.855c0,0.289,0.062,0.816,0.115,1.57   c0.639,2.842,3.254,4.932,6.271,4.932h4.41c3.482,0,6.5-1.914,7.027-4.992c0.055-0.404,0.115-0.754,0.115-1.158   c0.055-0.754,0.115-2.498-0.871-3.369c-1.629-1.395-5.168-1.971-9.344-2.959c-7.436-1.684-15.443-3.947-15.443-11.727v-0.814   c0-1.215-0.059-2.438,0.346-4.002l-0.055,0.057c1.219-6.447,7.193-11.145,13.814-11.145h4.41c3.482,0,6.793,1.275,9.404,3.363   c2.613,2.092,4.24,6.098,4.066,10.568c-0.061,1.158-0.061,2.262-1.859,2.262h-3.83c-1.104,0-1.803-0.928-1.861-1.857   c-0.172-4.934-2.203-6.793-5.92-6.793h-4.41c-2.961,0-5.691,2.148-6.324,5.109v-0.059c-0.178,0.99-0.527,2.73,0.922,4.18   c0.758,0.758,1.627,1.277,2.498,1.51l6.68,1.857c3.48,0.988,5.975,1.627,7.428,2.146c1.564,0.525,2.902,1.219,4.062,1.977   c2.381,1.627,4.064,4.408,4.064,8.357C248.506,220.508,246.707,225.387,244.094,227.709z"/>
</g>
<path fill="#D31F26" d="M99.253,227.939l-14.86-42.375c-0.408-0.754-0.639-1.512-1.801-1.512h-5.109c-1.16,0-1.45,0.643-1.856,1.512  c-1.509,3.658-14.804,42.84-14.804,43.074c0,1.1,0.988,1.857,1.917,1.857h4.006c1.393,0,1.507-0.58,1.916-1.512l11.377-32.621  c0.639,1.799,11.378,32.621,11.378,32.621c0.405,0.873,0.637,1.512,1.857,1.512h4.18c1.217,0,1.856-0.639,1.856-1.857  C99.311,228.404,99.311,228.348,99.253,227.939z"/>
</svg>